<?xml version="1.0" standalone="no"?>
<!DOCTYPE svg PUBLIC "-//W3C//DTD SVG 20010904//EN"
 "http://www.w3.org/TR/2001/REC-SVG-20010904/DTD/svg10.dtd">
<svg version="1.0" xmlns="http://www.w3.org/2000/svg"
 width="348.000000pt" height="348.000000pt" viewBox="0 0 348.000000 348.000000"
 preserveAspectRatio="xMidYMid meet">
<metadata>
Created by potrace 1.14, written by Peter Selinger 2001-2017
</metadata>
<g transform="translate(0.000000,348.000000) scale(0.100000,-0.100000)"
fill="#000000" stroke="none">
<path d="M1660 3360 c-7 -5 -16 -58 -25 -155 -7 -80 -15 -146 -25 -205 -5 -30
-11 -72 -15 -93 -19 -130 -70 -324 -112 -424 l-25 -62 -52 20 c-159 63 -428
239 -666 438 -30 26 -62 52 -71 58 -13 10 -26 1 -83 -56 -58 -58 -65 -70 -54
-82 71 -71 320 -409 390 -529 46 -78 118 -224 118 -240 0 -23 25 -17 94 25 41
25 98 67 127 93 59 52 158 181 179 231 15 37 7 36 140 6 42 -10 114 -17 165
-17 85 0 231 24 266 42 16 9 39 -5 39 -23 0 -4 20 -39 45 -77 63 -96 161 -190
261 -252 63 -38 83 -56 79 -67 -46 -117 -54 -350 -17 -481 11 -41 20 -75 19
-75 -1 -1 -36 -21 -77 -45 -121 -70 -263 -226 -325 -357 0 -1 -37 8 -80 19
-115 31 -310 31 -418 0 -91 -26 -87 -25 -87 -9 0 20 -94 158 -142 207 -59 62
-122 111 -191 150 -53 30 -58 36 -53 59 3 14 12 59 21 100 26 121 22 263 -12
381 -19 70 -25 75 -59 57 -57 -29 -200 -72 -344 -103 -47 -11 -171 -31 -230
-39 -25 -3 -61 -8 -80 -10 -36 -5 -69 -9 -180 -20 -36 -4 -66 -8 -67 -9 -3 -2
-6 -129 -4 -169 1 -16 6 -27 13 -26 13 3 179 -10 209 -16 8 -2 40 -6 70 -9 30
-3 65 -8 79 -10 14 -3 43 -7 65 -11 142 -20 329 -69 446 -117 l57 -23 -19 -50
c-55 -145 -206 -379 -399 -619 l-110 -137 62 -64 c35 -36 66 -65 70 -65 4 0
64 46 135 103 70 56 160 125 198 152 39 27 72 52 75 55 30 36 371 216 393 207
31 -12 109 -281 146 -502 19 -115 23 -142 36 -265 3 -30 8 -68 10 -85 2 -16 4
-42 4 -57 l1 -26 95 1 c52 0 95 3 96 6 0 3 2 20 4 36 2 17 6 55 10 85 20 196
34 289 60 430 30 156 106 380 130 380 6 0 61 -24 121 -54 138 -67 338 -201
524 -350 79 -64 147 -116 150 -116 3 0 34 29 69 64 49 49 62 68 54 78 -250
310 -369 478 -451 643 -75 150 -75 146 0 177 60 24 208 69 273 82 64 13 81 17
114 22 18 3 43 7 55 10 35 7 246 33 321 40 39 4 77 8 85 10 8 1 17 3 20 3 8 1
6 178 -1 185 -3 3 -30 8 -59 11 -29 3 -74 8 -99 10 -77 8 -145 16 -171 20 -14
2 -43 7 -65 10 -23 3 -52 7 -65 10 -14 3 -41 8 -60 11 -144 25 -398 106 -407
130 -7 18 71 179 141 292 67 107 173 253 293 399 45 57 83 105 83 107 0 3 -30
34 -66 70 l-66 65 -101 -83 c-252 -206 -484 -357 -660 -430 l-37 -15 -19 37
c-35 71 -97 283 -116 402 -4 25 -9 54 -11 65 -3 11 -7 40 -10 65 -3 25 -7 55
-9 68 -2 13 -7 53 -11 90 -3 37 -8 70 -10 73 -1 3 -4 33 -5 68 -1 34 -7 64
-12 68 -12 7 -166 10 -177 3z"/>
<path d="M1180 3094 c-103 -45 -146 -146 -109 -261 30 -92 165 -149 260 -109
125 53 164 228 71 322 -59 59 -151 79 -222 48z"/>
<path d="M2170 3099 c-108 -43 -159 -160 -115 -266 36 -85 115 -131 208 -120
164 20 233 219 115 337 -55 55 -142 75 -208 49z"/>
<path d="M501 2404 c-137 -40 -185 -215 -89 -323 41 -45 85 -65 148 -64 85 0
138 34 178 113 78 151 -71 324 -237 274z"/>
<path d="M2900 2410 c-153 -29 -217 -204 -120 -322 82 -100 246 -93 316 12 33
50 42 93 32 150 -20 107 -124 181 -228 160z"/>
<path d="M475 1411 c-149 -67 -152 -281 -5 -358 37 -19 56 -23 104 -19 209 16
257 300 64 381 -49 20 -114 19 -163 -4z"/>
<path d="M2839 1407 c-64 -34 -104 -102 -103 -176 3 -212 278 -277 375 -89 23
44 25 124 5 172 -42 101 -176 146 -277 93z"/>
<path d="M1217 733 c-3 -2 -15 -6 -28 -8 -34 -7 -90 -56 -113 -100 -65 -125
30 -284 172 -287 207 -5 284 263 107 372 -27 17 -128 34 -138 23z"/>
<path d="M2179 726 c-177 -61 -190 -301 -19 -373 203 -87 374 177 213 329 -50
48 -130 66 -194 44z"/>
</g>
</svg>
